<svg width="570" height="202" viewBox="0 0 570 202" xmlns="http://www.w3.org/2000/svg"><title>doodle_desk</title><g stroke="#20C9A5" stroke-width="2" fill="none" fill-rule="evenodd" stroke-linecap="round" stroke-linejoin="round"><path d="M565.89 200c.328-17.232.315-52.755 1.08-69.968.42-9.432 5.294-37.667-1.76-43.664-3.454-2.936-76.36-.251-97.712-.13-20.052.116-41.648-2.445-61.498.386"/><path d="M408 110.556c36.362-3.49 93.699-.003 100.798-.114 10.32-.159 13.042-3.103 14.354 6.235 2.28 16.25-.738 35.076-.94 51.56-.22 17.92-.806 14.849-1.294 32.763m-108.03 0c.714-17.43-2.203-36.412-3.033-48.933-1.826-27.661-3.68-54.89-7.885-82.305-4.105-26.793-8.153-54.542-39.43-60.273-23.05-4.222-58.349-5.639-71.16 17.293-7.056 12.626-9.98 27.338-12.495 41.428-2.391 13.398-5.885 42.9-5.885 42.9"/><path d="M274 111s-1.222 29.553-1.99 42.884c-.898 15.68-2.8 31.414-3.01 47.116m-92-18.15c-28.896.95-58.013-2.944-87.044-2.848-29.031.095-58.049.805-86.956.487M273 111c-49.176-4.037-44.705-.855-94 0M61.059 142.252c5.006 1.987 14.604-.615 19.86-.6 7.809.02 15.616.045 23.424-.02 2.309-.02 13.379.95 15.445-1.174 3.008-3.093-.24-12.823-2.645-14.588-3.306-2.427-33.642.991-39.011 1.017-3.808.02-13.712-1.873-16.806.765-2.471 2.108-.838 11.87-.267 14.6z"/><path d="M275 86.407c-3.114-2.493-34.213-.27-42.274-.257-17.13.028-107.493-.005-115.951.045-24.88.146-111.737-3.292-114.263.875-1.818 2.996-1.495 16.2-1.482 19.488.195 43.31.711 50.133 1.064 93.442M178 88c0 53.413.375 59.595.591 113"/><path d="M185.384 86c-.495-11.429-2.65-27.025-.323-38.28 2.058-9.95 7.939-7.198 18.367-7.29 10.172-.09 16.816-3.134 17.172 8.367.357 11.53.972 25.545-.799 36.868"/><path d="M192.807 40c-2.286-8.185-14.412-31.632-7.912-39 4.514 5.903 5.975 6.272 8.488 12.834C196.068 20.836 201 32.13 201 39.672M214.187 41c1.588-8.126 6.56-14.991 8.723-22.884.476-1.737 2.271-9.9 2.075-11.116-6.098.423-18.3 28.385-17.979 34"/></g></svg>