<svg width="227" height="284" viewBox="0 0 227 284" xmlns="http://www.w3.org/2000/svg"><title>hero_doodle_window</title><g stroke="#000" stroke-width="2" fill="none" fill-rule="evenodd" stroke-linecap="round" stroke-linejoin="round"><path d="M1.24 282.76c74.616 0 148.266-8.933 222.72-11.76l.709-24.001c.22-4.316.441-8.638.469-12.959.068-10.4.109-20.801-.009-31.2-.077-6.801.032-13.659-.786-20.388-1.885-15.504-1.448-31.047-1.269-46.571.259-22.402.298-44.804.074-67.2-.171-17.199-.646-34.396-.703-51.601-.015-4.789-.155-9.622-.846-14.406"/><path d="M78.52 1c.134 46.111-.421 92.392.327 138.484.643 39.661-1.378 81.475 1.642 120.952.139 1.818-.834 2.279-2.21 2.385-25.498 1.974-51.653.118-77.279.979M201.88 1c0 45.884.061 91.878.693 137.761.25 18.238 2.138 36.328 2.3 54.6L203.32 253c-19.094.707-38.021 3.489-57.103 3.976-11.346.289-34.943 6.114-44.65 2.097-5.957-6.719.112-47.784-.013-55.753-.317-20.187-1.926-40.209-1.903-60.42.049-45.015 7.054-97.559-.971-141.9"/><path d="M151 72.28c2.595-.202 2.353-3.453 5.198-1.414 1.14.816 1.906 2.027 3.372 2.289 2.138.382 3.006-1.449 4.887-1.707 2.708-.371 4.352 2.227 7.358 1.747 2.741-.437 4.756.734 7.584.229 2.854-.509 5.505-.33 7.559-2.362 1.915-1.896 3.914-1.399 6.006-2.959 1.474-1.099 3.337-3.708 3.209-5.671-.186-2.832-3.082-2.937-5.274-3.192-1.055-.123-2.185-.457-3.243-.164-1.172.325-1.73 1.762-2.654 2.032-1.873.547-3.339-2.147-5.201-2.781-3.033-1.033-3.277-1.797-4.794-4.529-1.07-1.927-3.334-3.744-5.74-3.232-1.862.396-1.327 1.092-2.177 2.274-.962 1.338-.407.956-2.116 1.217-.927.142-1.992-.326-2.907.098-1.264.586-1.269 1.998-2.413 2.538-1.118.527-4.118-.114-5.384.003-1.46.134-2.887.424-4.281.876-3.371 1.095-7.026.729-10.282 1.958-2.58.973-6.799 3.445-7.735 6.16-.756 2.193-.434 6.371 2.452 6.735 1.466.184 2.054-.951 3.271-1.251 1.706-.42 3.617.224 5.4-.135 1.299-.262 3.187-1.637 4.432-1.357 1.491.334 1.633 2.19 3.233 2.598m-72.24 67.2c-8.243-1.007-35.869 23.033-44.21 27.268-8.696 4.416-21.968 12.881-31.63 14.012m147.36 16.56c2.099.282 2.588 2.096 3.08 3.613 6.93 21.332-12.475 29.311-12.442 48.227a26.632 26.632 0 0 0 4.322 7.2"/><path d="M129.64 137.8c-17.669 24.094 6.306 34.676 16.484 53.704 14.004 26.181-18.884 39.642-18.884 65.096M24.28 69.16c-.463.062 5.451 8.424 7.68 8.88 4.744.971 9.629-1.631 10.712-6.261.826-3.526.974-7.228-1.819-10.311-3.021-3.334-7.361-3.754-11.038-.451-2.434 2.187-3.694 5.141-4.815 8.143"/><path d="M202.12 132.28c-13.403-.118-22.766-20.027-34.32-22.8l-2.4.72c-7.756-.388-28.607 19.887-34.838 23.794-8.312 5.211-20.712 15.584-30.202 17.486M59.08 33.4c-3.549 3.156-14.499 21.785-18 22.32"/><path d="M124.12 146.2c-2.365.85-2.98 3.042-3.285 5.051a37.307 37.307 0 0 0-.061 10.787c.26 1.859 1.076 3.366 3.106 3.842m-94.56 50.16c1.192 7.388-.583 15.138-.72 22.56m75.84-114.24c9.3-2.657 16.387 4.574 25.92 6.48m17.52-72.72c-.446-1.003-.889-4.046-1.799-4.614-1.14-.712-2.502.585-3.75-.133-1.49-.857-1.654-2.862-3.692-3.165-2.268-.336-3.79 1.985-5.399 3.112l.72-2.16c-1.999-1.709-2.96-1.87-5.337-1.17-.777.229-1.219.55-1.966.7-.854.171-1.789-.017-2.701.272-3.245 1.032-8.283 2.985-9.212 6.685-1.279 5.102 6.478 3.315 9.268 2.278 2.782-1.035 12.04-2.94 14.028.115M38.92 84.76c.761 2.501 5.453 16.25 7.92 18M12.52 38.68c4.033 6.138 8.911 11.596 12.96 17.76m15.6 177.84c-.894 1.443-.478 3.044-.446 4.559.066 3.122-.474 6.28.446 9.361m122.4-79.92c-4.641.212-9.229 1.473-13.92.72M31.48 84.52c.336 4.475.576 8.955.72 13.44m29.52-27.12c-4.324-1.691-8.893-1.856-13.44-2.16m-28.32 9.6a72.91 72.91 0 0 0-13.68 8.64M164.2 169c-1.012 4.509-.452 8.589 1.68 12.24M43 227.08c0-1.545-.665-2.835.577-4.002 1.864-1.751 3.583-.188 5.352.311 2.685.758 6.557 1.78 2.711 4.171l2.16-.72c3.173.496 6.358 5.349 2.443 6.967-3.945 1.631-10.495 1.715-14.461.28-3.18-1.15-6.792-3.202-4.948-7.034 1.487-3.09 2.459-4.654 5.686-3.093l.48 3.12zM33.88 45.16c0 1.993-.987 5.318-.72 10.56"/><path d="M25.72 219.88c-1.63 1.601-2.69-.453-4.035-1.461-1.681-1.259-3.682-2.016-5.325-3.339h-1.2c4.102.152-.768-8.184 6-4.8l.48 1.2c-.513-1.839 1.669-6.094 3.681-6.462 3.029-.554 4.307 4.21 7.839 2.142l.24-.72c.238.697 2.052 1.473 2.685 1.646 1.563.428 1.436 1.162 2.565-.7 1.045-1.723.103-6.087 3.896-4.399 1.274.567.904.859 1.384 2.011.501 1.202.809 1.798 1.457 2.905 1.178 2.011 2.155 5.648 2.413 8.377l.96.24c-6.154 1.647-12.192 5.117-18.72 3.12M10.36 64.84c3.205.536 6.405.376 9.6-.48m148.08 101.76a28.654 28.654 0 0 1 2.4 8.16"/><path d="M171.16 174.28c4.874.701-21.948 10-18.726 9.333-2.079.43-3.059-.473-3.105-2.613-.181-8.363.184-13.359 6.258-19.654 1.556-1.613 2.589-1.381 4.035.707 1.477 2.133 3.803 3.704 4.338 6.467M50.92 85c-1.774-.98-2.798-3.083-5.04-3.36m7.68-24a151.963 151.963 0 0 0-6.72 1.68"/></g></svg>