<svg width="168" height="490" viewBox="0 0 168 490" xmlns="http://www.w3.org/2000/svg"><title>hero_doodle_shelf</title><g stroke="#000" stroke-width="2" fill="none" fill-rule="evenodd" stroke-linecap="round" stroke-linejoin="round"><path d="M75.136 102.04c-1.985 1.732-4.042-.63-6.078-.451-3.107.273-5.146 1.419-8.021 2.674-6.645 2.902-13.348 5.649-20.052 8.41-12.63 5.201-25.694 10.282-37.373 17.44-2.906 1.781-2.783 1.729-2.432 5.051 3.738 35.418 4.635 71.455 6.453 107.017 1.949 38.123 1.036 76.438 3.899 114.499.192 2.546 2.275 4.109 4.806 3.864 49.457-4.781 99.2-8.399 148.315-16.362.769-.124 2.029.115 1.683-1.422m0 68.64c-17.137.784-34.296 1.288-51.39 2.802-8.55.757-17.078 1.718-25.604 2.698-3.682.424-7.367.971-11.066 1.217-2.76.184-8.895 1.636-11.54.723"/><path d="M166.336 134.2c-13.655.096-27.251 1.816-40.915 1.98-13.962.169-27.915-.609-41.886-.548a1410.86 1410.86 0 0 0-39.357.716c-13.955.451-28.672-1.489-42.482-.228m164.64 73.68c-.154.451.458 1.164-.718 1.233-17.278 1.013-34.581 1.679-51.831 3.106-8.216.68-16.416 1.637-24.647 2.127-3.875.23-18.501-1.896-21.186.514-8.774 7.878-19.366 14.298-28.864 21.29-4.862 3.579-9.766 7.1-14.67 10.621-2.355 1.691-9.645 9.185-12.644 9.349m154.56 55.2c-17.263.157-34.467.443-51.712 1.322-14.846.757-33.33 5.359-47.895 2.07-1.033-.233-1.944.121-2.91.882-8.583 6.76-17.098 13.601-25.585 20.481-7.23 5.86-20.181 13.133-24.778 21.325l-.48.72c-3.7 3.259-.29 16.508.008 21.264.536 8.564 1.044 17.138 1.438 25.71.76 16.554.608 32.951.229 49.506-.023 1.017.198 1.923.965 2.64v.96c9.452 3.791 25.095-1.159 35.065-2.09 13.184-1.23 26.35-2.376 39.57-3.125 25.307-1.435 50.862.068 76.085-2.705"/><path d="M166.336 246.28c-25.292 1.7-50.63 3.291-75.84 5.982-24.386 2.603-49.102 6.976-73.681 5.559-.701-.04-1.282-.327-1.92-.501m52.08-120.72c.18 13.201.6 26.398.794 39.599.09 6.16.1 12.321.103 18.482.002 5.469-2.092 16.804.544 21.599"/><path d="M69.136 255.4c2.93 7.213.548 20.457.375 28.244-.244 10.944-.103 22.056-1.095 32.956m-.24 42c1.473 8.357-.898 18.692-1.34 27.144-.523 9.97-.898 19.991-.468 29.971.145 3.364-.998 5.139-3.676 6.783-8.197 5.033-14.72 12.881-22.39 18.719-7.717 5.873-15.944 11.129-23.475 17.237-1.334 1.081-2.147 2.489-2.181 4.306-.151 8.012-.982 17.629.97 25.44m97.44-385.68c4.439 3.209 18.897.479 24.342.48h28.938m-123.6-60c3.117-13.473 17.255-21.157 26.64-20.88 1.682.049 3.332-.782 5.066.193 1.28.72 1.745 1.234.964 2.703-4.04 7.6-10.3 11.941-18.74 13.48-3.126.57-6.218 1.364-9.36 1.922-1.153.204-2.11.042-3.13-.298m34.8 30.24c-1.194 3.231-2.751 6.364-3.103 9.842-.613 6.061-1.69 12.064-.794 18.246 1.482 10.218 7.169 16.773 16.615 20.397 3.414 1.31 6.46.025 9.34-1.485 5.154-2.7 8.859-6.702 10.609-12.432 1.776-5.813 1.974-11.99 1.175-17.985-.658-4.941-3.294-10.134-2.57-15.15.468-3.237-27.275-1.222-30.32-1.88-.102-.022-.312.287-.472.207"/><path d="M72.256 21.4c-.156-1.275-1.244-1.64-2.171-1.878-1.803-.463-3.66-.759-5.511-.985-3.268-.398-7.846-3.66-8.114-6.981-.178-2.207.37-8.943-1.484-10.556l1.2 1.44c1.76-.83 3.297.362 4.77.814 4.417 1.356 8.315 3.696 11.07 7.585 2.25 3.175 5.235 7.796 3.36 11.761m12.48 25.2c-5.291-4.237-17.872-3.467-21.858 3.59-.775 1.371-1.481 2.71-1.421 4.43 5.614.079 11.24 1.447 16.62-1.922 2.947-1.844 5.066-4.41 7.619-6.578m26.4-16.8c2.187 2.748 5.268 2.884 8.4 2.881 4.355-.004 7.043-.722 9.927-2.7-1.592-2.155-3.77-3.369-6.331-3.752-7.752-1.158-12.236 5.324-19.687 3.129-2.548-.75-4.423-2.327-6.24-4.108-.901-.885-.905-2.007-.408-2.854.586-.998 1.786-.974 2.815-.507 2.868 1.303 5.614 2.804 7.68 5.273 1.53 1.828 1.259 4.124-.723 5.265-7.6 4.372-11.975 11.166-14.941 19.188-2.064 5.581-.076 11.575-1.372 17.305"/><path d="M102.976 40.6c1.996 3.108 4.258 5.986 7.93 7.168 2.61.84 5.344 2.298 7.91-.208m-12.24-11.04c4.739 3.716 9.907 3.247 12.246 10.078.303.886.919 1.37 1.914 1.202m-27.6-18.12c-4.366-3.98-8.031-1.209-10.76 2.379 4.897 6.634 5.7 18.195 11.72 23.661"/><path d="M92.536 30.04c-.86 2.965-2.564 4.961-5.88 5.023-.634.012-1.091.437-1.68.497m-8.64-10.8c1.49 1.8 3.074 3.523 4.34 5.506.41.64 1.019 1.2 1.9 1.214m23.76 46.44c-1.163 2.662-1.372 5.691-3.31 8.081-.743.916 1.15 6.35 1.15 7.639m-1.44-7.2l-3.6 1.2m8.64 1.92c-2.346.725-4.86.442-7.2 1.2m.24-67.92c-.926-.901-2.001-.836-3.12-.48m6.24 72c.21 2.265-.858 9.175-1.905 11.287-.42.846-.181 2.069-1.455 2.393m5.76-14.4c-1.698-.169-3.201.634-4.8.96"/></g></svg>