<svg width="24" height="24" viewBox="0 0 24 24" xmlns="http://www.w3.org/2000/svg"><title>icon_keys</title><g stroke="#F64662" fill="none" fill-rule="evenodd" stroke-linecap="round" stroke-linejoin="round"><path d="M13.5 9a5.5 5.5 0 0 0-11 0 5.498 5.498 0 0 0 4 5.287V15.5l-1 .999 1 1.001v1l-1 1 1 1V22L8 23.5 9.5 22v-7.713c2.307-.653 4-2.77 4-5.287z"/><circle cx="8" cy="7" r="1.5"/><path d="M9.5 15.013a5.507 5.507 0 0 0 5.425.033L16 16v1.5h1.5l.5.524V19.5h1.317l1.062 1H22.5v-2.121l-5.454-5.454a5.498 5.498 0 0 0-5.505-8.133"/><path d="M8 7V2.5a2 2 0 0 1 4 0v2.252"/></g></svg>