<svg width="206" height="427" viewBox="0 0 206 427" xmlns="http://www.w3.org/2000/svg"><title>smoor_iphone</title><g transform="translate(1 1)" fill="none" fill-rule="evenodd"><path d="M24.999 0h154.502C193.308 0 204.5 11.194 204.5 24.999v374.752c0 13.807-11.195 24.999-24.999 24.999H24.999C11.192 424.75 0 413.556 0 399.751V24.999C0 11.192 11.195 0 24.999 0z" stroke-opacity=".24" stroke="#000" fill="#FFF"/><circle fill-opacity=".04" fill="#000" style="mix-blend-mode:multiply" cx="102.25" cy="402.5" r="15"/><rect fill-opacity=".04" fill="#000" style="mix-blend-mode:multiply" x="82.5" y="20.5" width="39.5" height="3.5" rx="1.75"/><path d="M65.5 24.75a2.75 2.75 0 1 0 0-5.5 2.75 2.75 0 0 0 0 5.5z" fill-opacity=".04" fill="#000" style="mix-blend-mode:multiply"/><rect stroke-opacity=".24" stroke="#000" stroke-width=".5" x="8.75" y="45.75" width="188" height="334" rx="3"/></g></svg>