<svg width="24" height="24" viewBox="0 0 24 24" xmlns="http://www.w3.org/2000/svg"><title>sosh-twitter</title><path d="M24 4.367a9.617 9.617 0 0 1-2.828.795 5.038 5.038 0 0 0 2.165-2.792c-.963.587-2.022 1-3.128 1.224A4.854 4.854 0 0 0 16.616 2c-2.718 0-4.922 2.26-4.922 5.049 0 .395.042.78.126 1.15C7.728 7.987 4.1 5.98 1.67 2.922a5.14 5.14 0 0 0-.665 2.54c0 1.752.869 3.297 2.19 4.203a4.834 4.834 0 0 1-2.232-.63v.062c0 2.447 1.698 4.489 3.952 4.95-.422.12-.859.18-1.297.178-.317 0-.627-.03-.927-.09.627 2.005 2.444 3.467 4.599 3.505A9.723 9.723 0 0 1 0 19.733 13.71 13.71 0 0 0 7.548 22c9.057 0 14.01-7.693 14.01-14.365 0-.22-.005-.439-.014-.654A10.1 10.1 0 0 0 24 4.367" fill-rule="nonzero" fill="#F64662"/></svg>