<svg width="151" height="136" viewBox="0 0 151 136" xmlns="http://www.w3.org/2000/svg"><title>doodle_picture</title><g fill="none" fill-rule="evenodd" stroke-linecap="round" stroke-linejoin="round"><g transform="translate(1 1)" stroke="#20C9A5" stroke-width="2"><path d="M37.866 25.44c4.875 2.531 12.404 2.462 17.79 3.25 6.233.91 12.482 1.62 18.736 2.363 12.58 1.494 25.181 3.491 37.684 5.534 3.178.518 6.35 1.087 9.542 1.52 1.237.169 5.522-.021 6.539.912 2.258 2.07-1.206 12.434-1.546 15.455-1.415 12.572-2.442 25.009-4.698 37.474-1.047 5.789-1.75 11.616-2.809 17.4-1.198 6.552-2.315 6.814-8.749 6.392-12.388-.813-24.511-2.264-36.846-3.85-11.949-1.537-24.204-.282-36.225-1.43-3.303-.316-13.393-.368-15.675-3.027-2.096-2.442.696-12.212 1.05-15.292 1.507-13.106 4.563-26.066 6.639-39.092 1.05-6.587 1.868-14.475 4.451-20.658 1.006-2.41 2.783-4.7 4.117-6.951z"/><path d="M120.186 63.12c-.397 6.057-1.751 11.992-3.246 17.858-.453 1.78-4.481 12.134-3.474 13.342m-62.64-24.48c2.643-1.778 4.6-3.882 4.102-7.444-.642-4.59-6.859-4.934-8.422-.717-1.116 3.01-.346 5.064 2.88 7.68m78-23.28c-2.262-.309-4.524-1.54-6.858-1.946-3.224-.56-6.124-.11-9.372-.21-2.872-.089-5.469-.253-8.329.05-3.904.41-2.956.596-5.123 3.602-.856 1.188 7.282 10.569 8.709 11.596.533.385 2.086 1.322 2.773 1.495 1.211.306 1.881-.235 2.91-.043 2.362.44 5.174 1.206 7.61 1.777m-30.96 7.44c2.865-1.547 4.476-3.834 4.063-7.199-.207-1.686-.556-3.377-2.799-3.883-2.567 1.527-5.047 4.578-4.459 7.758.649 3.51 2.405 4.168 1.412 7.965-.708 2.707-.986 5.887-.677 8.733.386 3.556 2.387 6.647 1.74 10.386"/><path d="M87.066 70.56c-2.287.677-4.076 2.413-6.231 3.382-1.784.8-3.815.558-5.473 1.252-3.194 1.335-5.004 5.582-9.176 3.766"/><path d="M66.426 77.28c.808-.808 1.967-1.168 2.65-2.154.82-1.184.63-2.826-.49-3.607-.995-.694-2.945-.356-3.583.73-1.855 3.154 3.468 6.069-.501 8.142-.856.447-1.756.808-2.636 1.209"/><path d="M77.706 13.2c4.257 2.615 11.2 2.41 16.019 3.245 6.632 1.151 13.135 2.639 19.845 3.35 6.179.656 12.384.84 18.577 1.293l16.599 2.431c-1.09 17.953-5.382 35.803-6.822 53.773-.749 9.343-1.745 18.665-3.102 27.94-.694 4.749-1.52 9.48-2.04 14.254-.444 4.08.515 9.017-.677 12.902-11.786 3.482-24.874-1.465-36.839-1.305-12.548.167-24.058-1.05-36.413-3.31-11.129-2.037-22.162-4.103-33.472-4.694-5.976-.313-11.801-1.127-17.719-1.974-2.845-.407-10.435-.044-11.523-3.33-.665-2.01 1.247-6.273 1.651-8.41.531-2.813 1.185-5.552 1.924-8.317A1954.19 1954.19 0 0 1 7.973 85.44c3.03-10.97 6.279-21.917 8.792-33.02 2.461-10.875 3.987-21.882 5.691-32.89.543-3.5-.109-11.626 3.89-12.593 4.046-.978 10.661 1.42 14.779 2.035 10.579 1.582 21.249 2.399 31.799 4.14 4.772.788 5.526-2.107 9.056-5.066C85.214 5.335 88.277 1.876 92.106 0l-.24 2.4c.135 2.773.874 5.468 2.035 7.982.748 1.62 3.66 4.638 3.485 6.417"/><path d="M50.346 70.08c-2.763 2.566-.777 7.017-1.806 10.219-.765 2.382-3.565 5.986-5.691 7.54-2.263 1.654-4.378.969-6.897 1.222-3.341.335-5.981.942-8.166-2.422m98.64-35.04c-2.911-1.368-4.473 4.835-6 6.24m-72 24.24c1.504 2.058 1.714 4.937 2.885 7.199 1.975 3.816 4.502 3.902 6.955.241m61.44-32.16c-.589-2.742-2.132-5.892-5.04-6.48m-49.44 34.8c-1.85 1.822-2.579 4.31-3.84 6.48m3.84-11.76c-.189 2.924 4.394 10.047 2.888 11.921-.462.3-1.534.4-2.648.32"/><path d="M112.746 54.72c2.028 1.889 4.138 3.574 7.379 2.68.579 1.88.319 3.56-.293 5.337 1.89.23 3.517 1.22 5.394 1.102m-74.16 6.96c1.875 1.593 2.003 4.497 4.32 5.76m-6.96-4.08c-.966.025-5.788 3.924-6.24 3.36m-14.4 19.68c.888 1.474.329 3.71 2.4 4.56m74.4-9.36c-.244 2.488-.75 5.544 2.4 5.04m-14.64-.24c-2.008-2.977-6.979-1.622-9.84-1.68m-6.24-4.56c.177 2.537-.881 2.322-2.605 2.572-2.055.297-2.737.022-4.835 1.028m16.8-7.68c-1.646 1.285-2.008 5.08-4.56 5.04m7.44-17.28c1.388 1.194 1.821 3.231 3.6 4.08m-44.16 26.88c-.891-.093-1.614-.605-2.401-.96-.461.325-.148.802-.239 1.2m5.76-14.4c-1.295.463-1.921 2.18-3.61 1.892-.276-.785-1.016-1.417-.95-2.371m-13.92-1.92c-.402 2.266.403 4.132 1.92 5.76m41.76-1.44c2.449.405 3.479 1.916 3.36 4.32m32.64-.24c3.018-3.282 3.468 1.241 6.24 1.2m-52.32 3.84l-4.8.24m38.04-6.96c-.116-2.92-3.271.148-4.44 0"/></g></g></svg>