<svg width="151" height="148" viewBox="0 0 151 148" xmlns="http://www.w3.org/2000/svg"><title>doodle_stool</title><g fill="none" fill-rule="evenodd" stroke-linecap="round" stroke-linejoin="round"><g transform="translate(1 1)" stroke="#20C9A5" stroke-width="2"><path d="M116.378 51.681c-.076 4.577 2.658 9.339 3.939 13.656a130.347 130.347 0 0 1 3.777 16.579c1.634 10.247 3.468 20.411 6.054 30.47 2.353 9.156 6.007 19.953 5.195 29.556-.267 3.162-1.056 3.512-4.326 3.806-1.658.149-4.394.396-5.933-.444-1.407-.768-1.38-2.186-2.946-2.423m-89.28-87.36c.513 2.734-3.611 7.859-4.866 10.089-2.011 3.572-4.088 7.107-6.086 10.687-4.183 7.499-7.985 15.206-11.321 23.12-2.127 5.046-17.375 43.791-7.005 44.137 3.217.108 6.584.646 9.358-1.753m77.04-88.2c-2.26 4.629-1.84 11.507-2.312 16.556-.482 5.161-.913 10.326-1.373 15.488-.425 4.759-.773 9.621-1.533 14.343-.188 1.172-1.493 10.479-2.508 10.847-1.962.713-3.895 2.034-6.194 1.566m69.014-87.352c-.447-.485-5.132 1.676-5.645 1.853a170.55 170.55 0 0 1-15.422 4.553c-7.43 1.814-14.98 3.134-22.578 4.006-8.815 1.01-17.696.68-26.485 1.616-11.215 1.194-21.346 1.91-32.54.559-5.869-.71-11.739-1.401-17.59-2.236-4.245-.606-9.575-.751-13.505-2.65"/><path d="M145.178 31.761c-3.11 3.2-8.795 4.776-12.818 6.329-7.133 2.755-14.441 5.104-21.822 7.098-14.237 3.846-28.393 4.221-43.035 4.48-9.41.167-18.237.634-27.477-1.047a854.122 854.122 0 0 1-17.308-3.315c-2.044-.416-8.5-.659-9.97-2.374-7.94-2.264-5.89-13.171-5.833-13.285 1.679-10.38 19.13-16.641 27.506-20.191C46.877 4.178 59.287 1.507 72.764.38c12.552-1.049 24.224.269 36.665 1.574 11.475 1.203 27.296 2.521 36.708 9.888 3.532 2.765 1.848 18.499-.96 19.919-4.12 4.24 2.808-1.42 0 0zm-75.84 12.72c.312 1.588.227 3.197.24 4.8m-18.24-4.32l-.24 4.56m-20.88-11.28c-.002 1.064.126 2.149-.48 3.12"/></g></g></svg>