<svg width="24" height="24" viewBox="0 0 24 24" xmlns="http://www.w3.org/2000/svg"><title>sosh-instagram</title><g fill="none" fill-rule="evenodd"><g fill-rule="nonzero" fill="#F64662"><path d="M12 0C8.741 0 8.332.014 7.053.072 5.774.131 4.902.334 4.14.63a5.875 5.875 0 0 0-2.125 1.384A5.876 5.876 0 0 0 .63 4.14c-.296.763-.5 1.635-.558 2.913C.014 8.332 0 8.74 0 12c0 3.259.014 3.668.072 4.948.059 1.277.262 2.15.558 2.912a5.875 5.875 0 0 0 1.384 2.125 5.884 5.884 0 0 0 2.126 1.386c.763.296 1.635.498 2.913.557C8.332 23.986 8.74 24 12 24c3.259 0 3.668-.014 4.948-.072 1.277-.059 2.15-.262 2.912-.558a5.875 5.875 0 0 0 2.125-1.384 5.884 5.884 0 0 0 1.386-2.126c.296-.763.498-1.635.557-2.912.058-1.28.072-1.689.072-4.948 0-3.259-.014-3.668-.072-4.947-.059-1.278-.262-2.15-.558-2.913a5.875 5.875 0 0 0-1.384-2.125A5.876 5.876 0 0 0 19.86.63c-.763-.296-1.635-.5-2.912-.558C15.668.014 15.259 0 12 0zm0 2.162c3.204 0 3.584.013 4.849.07 1.17.053 1.805.249 2.229.413.56.218.96.478 1.38.898.419.42.679.82.897 1.38.165.423.36 1.058.413 2.228.058 1.265.07 1.645.07 4.849s-.012 3.584-.07 4.849c-.053 1.17-.249 1.805-.413 2.229-.218.56-.478.96-.898 1.38-.42.419-.82.679-1.38.897-.423.165-1.058.36-2.228.413-1.265.058-1.645.07-4.849.07s-3.584-.012-4.849-.07c-1.17-.053-1.805-.249-2.228-.413a3.717 3.717 0 0 1-1.38-.898c-.42-.42-.68-.82-.897-1.38-.165-.423-.36-1.058-.414-2.228-.058-1.265-.07-1.645-.07-4.849s.013-3.584.07-4.849c.053-1.17.249-1.805.413-2.228.218-.56.478-.96.898-1.38.42-.42.82-.68 1.38-.897.423-.165 1.058-.36 2.228-.414 1.265-.058 1.645-.07 4.849-.07zm0 3.676a6.162 6.162 0 1 0 0 12.324 6.162 6.162 0 1 0 0-12.324zM12 16a4 4 0 1 1 0-8 4 4 0 0 1 0 8zm7.846-10.405a1.44 1.44 0 1 1-2.88 0 1.44 1.44 0 0 1 2.88 0z"/></g></g></svg>