<svg width="134" height="190" viewBox="0 0 134 190" xmlns="http://www.w3.org/2000/svg"><title>hero_doodle_lamp</title><g fill="none" fill-rule="evenodd" stroke-linecap="round" stroke-linejoin="round"><g transform="translate(1 1)" stroke="#000" stroke-width="2"><path d="M128.4 112.547c-7.011-4.996-11.174-11.058-20.576-15.396-4.455-2.055-11.024-6.484-28.384-9.324-11.936-1.953-23.731-1.394-35.675 1.398-7.408 1.732-14.584 4.414-21.555 7.435C14.638 99.942 0 111.587 0 111.587c13.436.069 26.729 1.288 40.202 1.38 14.038.096 28.077.154 42.118.037 1.634-.014 2.734.356 3.645 1.917 3.213 5.507 2.905 10.974-.086 16.323-2.103 3.76-5.066 6.879-8.613 9.363-1.254.878-2.719 1.221-4.306 1.245-5.066.078-10.077.056-14.647-2.652-3.232-1.915-5.968-4.256-7.701-7.679-1.478-2.921-1.161-9.035-.23-12.02.633-2.03 2.203-3.536 2.898-5.514"/><path d="M128.4 112.547c-3.028.982-6.635.024-9.76-.021-3.842-.055-7.68.145-11.52.255-6.593.188-15.755-1.621-21.92.726m-20.76 40.8c-1.637 10.189-5.328 22.533-3.48 32.88m41.28-58.56c5.384.199 10.678 1.237 15.889 2.552 3.679.927 9.597 3.957 13.391 3.688m-61.44-63.36c1.936.227 3.679 1.121 5.76 1.123 1.51.002 2.982 1.45 3.398 3.429.386 1.835.811 3.662.899 5.529.089 1.881.358 3.851-1.778 5.529m-40.439 45.59c-1.451-.671-2.65-.026-3.841.718-3.353 2.096-6.608 4.344-9.83 6.635-2.321 1.65-5.859 5.607-8.889 5.367m92.16 6.24c-.066-.437.038-.803-.448-1.236-3.444-3.072-7.206-10.105-12.032-10.764m-20.88-24.48c1.168 2.473 1.104 2.713-1.198 4.562-.175.141-.374.291-.474.482-2.323 4.453-8.001-.472-9.34 3.366-.535 1.532-1.622 2.855-1.708 4.55m23.28 24.24c2.037 2.109 3.044 4.782 4.08 7.44m-14.16-40.56c.814 1.6 2.319 6.093 2.16 7.92m-31.2 22.56a27.409 27.409 0 0 1-3.36 6.24m23.28-42.24c.11 2.771-1.334 5.358-.96 8.16M71.044 0c-.045 10.077-1.25 59.942-1.177 70.066.01 1.298-.383 2.223-1.467 2.881l-3.36 2.16c-1.983 2.345-.362 3.732-.888 6.158-.375 1.73-2.139 3.18-1.512 5.122"/></g></g></svg>