<svg width="502" height="417" viewBox="0 0 502 417" xmlns="http://www.w3.org/2000/svg"><title>doodle_plant</title><g fill="none" fill-rule="evenodd" stroke-linecap="round" stroke-linejoin="round"><g transform="translate(1 1)" stroke="#000" stroke-width="2"><g transform="translate(237 12)"><path d="M158 49c-1.877 9.92-13.195 16.617-19.116 23.938-8.142 10.07-13.14 20.739-17.726 32.795-8.094 21.273-19.534 50.133-19.149 73.032.367 21.818 11.33 45.819 16.708 66.752 2.842 11.06 3.148 23.1 6.539 34.26C128.296 289.789 142.92 392.44 143.52 403"/><path d="M227.002 157.32c.565 16.847 31.072 25.36 35.599 8.23 4.475-16.933-29.996-10.767-38.043-8.974-20.257 4.508-40.675 18.93-56.467 32.55C155.848 199.685 134.61 239.808 120 242M20.502 128.111c-7.463.107-15.508-1.783-20.502 6.612 6.619 15.719 32.83 24.527 48 15.887"/><path d="M48.183 129.885c7.812-3.733 18.653-22.641 24.342-4.448 3.603 11.517-14.166 31.402-24.252 18.198-4.175-5.47-1.658-38.21-21.32-30.453-20.043 7.909 2.27 31.268 17.821 27.018M64 147c4.248 6.951 30.51 31.647 38 32m78.108-150c7.702 3.851 24.646-1.683 27.607 9.49 3.639 13.75-28.641 14.642-35.715 12.79m-7.985-26.791c-16.135-9.097-25.405.986-16.637 14.259 12.396 18.758 31.48 1.758 18-13.577"/><path d="M172.381 32c11.212-2.653 40.34-27.748 16.484-31.853C177.271-1.849 167.91 16.99 166 25.682"/></g><g><path d="M152 31c16.976 15.84 19.707 31.598 23.028 53.767 2.362 15.769 0 49.369-2.614 65.233M57 164.03c15.714-.764 40.097 13.705 54.075 19.919 17.569 7.81 48.332 36.362 53.052 44.23 4.721 7.867 2.504 43.865 9.873 66.821M25.18 148.579c-50.768-10.65-12.581 36.762 8.82 17.963"/><path d="M53 168c0-9.394-13.936-50.392-24.74-26.765C21.782 155.391 41.84 168 53 168"/><path d="M45.707 139.84c1.244-5.058 8.362-12.71 14.338-8.736 9.402 6.247-.611 16.927-2.904 23.554-3.592 10.376-1.767 21.217-12.84 26.888-14.529 7.436-22.89-3.342-9.742-14.765m209.764-79.246c-1.498-7.98 5.187-18.802 13.315-20.698 13.768-3.212 9.06 3.45 6.294 9.286-6.43 13.565-30.053 16.728-42.443 25.661-11.521 8.31-20.106 16.967-29.008 27.913-4.716 5.798-16.462 13.196-19.502 19.21-5.53 10.941-2.417 29.114-3.959 41.317-1.32 10.446-1.013 35.334-3.02 44.776M141.972 16.902c-4.996-8.326-22.555-18.667-21.957-2.015.416 11.594 22.993 16.273 22.985 3.366m112 80.419c12.421 7.661 16.546 7.263 22.629-2.514 7.754-12.463 1.083-14.576-9.37-21.158M145 15.39c7.736-5.249 7.8-15.982 19.545-15.364 8.69 8.093-.464 23.608-11.414 23.974M255 88c6.59 1.85 13.159 3.837 20 4"/></g><g transform="translate(208 192)"><path d="M35.585 42C40.669 35.546 54.987 4.596 37.74.377c-18.309-4.48-16.077 32.268-6.32 40.93M0 35a43.502 43.502 0 0 0 12.17 10.104c5.976 3.209 11.914 3.151 17.808-.18 9.804 3.364 9.7 3.905 12.595 17.264C46.948 82.354 48.711 101.287 49 122M69.645 14C83.352 31.103 51.368 44.143 40 46m30-34c-3.748 3.168-17.043 7.965-22 8M2 35c5.172-8 13.265-4.161 22-3.507"/></g></g></g></svg>