<svg width="206" height="426" viewBox="0 0 206 426" version="1.1" xmlns="http://www.w3.org/2000/svg" xmlns:xlink="http://www.w3.org/1999/xlink"><title>smoor_iphone</title><desc>Created with Sketch.</desc><defs><rect id="path-1" x="8.5" y="45.75" width="187.5" height="333.5" rx="3"/></defs><g id="Assets" stroke="none" stroke-width="1" fill="none" fill-rule="evenodd"><g id="smoor_iphone" transform="translate(1.000000, 1.000000)"><path d="M24.9989688,0 L179.501031,0 C193.30758,0 204.5,11.1937015 204.5,24.9989678 L204.5,399.751032 C204.5,413.557581 193.305288,424.75 179.501031,424.75 L24.9989688,424.75 C11.1924196,424.75 0,413.556299 0,399.751032 L0,24.9989678 C0,11.1924191 11.194712,0 24.9989688,0 Z" id="body" stroke-opacity=".24" stroke="#000" stroke-width=".5" fill="#FFF"/><circle id="home-button" fill-opacity=".04" fill="#000" style="mix-blend-mode:multiply" cx="102.25" cy="402.5" r="15"/><rect id="speaker" fill-opacity=".04" fill="#000" style="mix-blend-mode:multiply" x="82.5" y="20.5" width="39.5" height="3.5" rx="1.75"/><path d="M65.5,24.75 C67.0187831,24.75 68.25,23.5187831 68.25,22 C68.25,20.4812169 67.0187831,19.25 65.5,19.25 C63.9812169,19.25 62.75,20.4812169 62.75,22 C62.75,23.5187831 63.9812169,24.75 65.5,24.75 Z" id="camera" fill-opacity=".04" fill="#000" style="mix-blend-mode:multiply"/><mask id="mask-2" fill="#fff"><use xlink:href="#path-1"/></mask><rect stroke-opacity=".24" stroke="#000" stroke-width=".5" x="8.25" y="45.5" width="188" height="334" rx="3"/></g></g></svg>