<svg width="24" height="24" viewBox="0 0 24 24" xmlns="http://www.w3.org/2000/svg"><title>sosh-facebook</title><g fill="none" fill-rule="evenodd"><g fill-rule="nonzero" fill="#F64662"><path d="M12.557 24H1.298C.581 24 0 23.407 0 22.675V1.325C0 .974.137.636.38.388.625.139.955 0 1.299 0h20.915c.344 0 .675.14.918.388.243.249.38.586.38.937v21.35c0 .732-.581 1.325-1.298 1.325h-5.991v-9.294h3.056l.458-3.622h-3.514V8.771c0-1.049.286-1.763 1.758-1.763l1.88-.001v-3.24c-.325-.043-1.44-.142-2.739-.142-2.708 0-4.563 1.688-4.563 4.787v2.672H9.494v3.622h3.064V24z"/></g></g></svg>